<svg width="77" height="94" fill="none" xmlns="http://www.w3.org/2000/svg"><path d="M65.151 11.846C58.331 5.026 48.911.809 38.501.809c-10.411 0-19.83 4.217-26.652 11.037C5.03 18.667.811 28.087.811 38.498c0 10.41 4.217 19.83 11.038 26.65C18.67 71.97 28.089 76.187 38.5 76.188c10.41 0 19.83-4.218 26.651-11.038 6.821-6.822 11.038-16.241 11.038-26.651 0-10.411-4.216-19.83-11.038-26.652Z" fill="#fff"/><path d="M0 38.502C0 17.236 17.238 0 38.5 0v.809c-10.409 0-19.83 4.218-26.651 11.04C5.027 18.67.809 28.09.809 38.5s4.218 19.829 11.04 26.65c6.822 6.822 16.242 11.04 26.65 11.04 10.41 0 19.83-4.218 26.652-11.04 6.822-6.821 11.04-16.24 11.04-26.65S71.973 18.67 65.15 11.848C58.33 5.027 48.91.81 38.5.81V0C59.763 0 77 17.236 77 38.502 77 59.763 59.763 77 38.5 77 17.238 77 0 59.764 0 38.502Z" fill="#C5C9CC"/><path d="m38.5 27.51.26-.073c-12.946 4.018-23.19 10.902-23.4 15.957-.225 5.41 11.13 6.68 25.353 2.836 14.224-3.844 25.942-11.35 26.167-16.76.116-2.804-2.879-4.495-7.77-4.94 5.978.268 9.722 2.01 9.722 5.121 0 5.929-13.583 14.585-30.332 19.332-16.748 4.747-30.332 3.788-30.332-2.141 0-5.928 13.584-14.586 30.333-19.332Z" fill="#A0A4A7"/><path d="m14.111 58.684 42.05-40.367-3.813 31.733-6.952-7.961-31.285 16.595Z" fill="#E63F3F"/><path d="M2.708 88.453c.742 0 1.267-.117 1.572-.379.306-.248.466-.67.466-1.252 0-1.106-.699-1.66-2.111-1.66h-.757v3.29h.83Zm-.03.684h-.8v3.771h-.772v-8.43h1.456c.932 0 1.66.174 2.213.538.54.35.801.947.801 1.747 0 .932-.262 1.544-.8 1.879-.54.335-1.238.495-2.098.495Zm8.17 3.335c.698 0 1.31-.16 1.878-.495a3.504 3.504 0 0 0 1.325-1.325c.335-.568.495-1.194.495-1.893 0-.612-.13-1.194-.407-1.777a3.614 3.614 0 0 0-1.253-1.442c-.553-.378-1.223-.567-2.01-.567-.552 0-1.12.13-1.703.408a3.592 3.592 0 0 0-1.427 1.266c-.379.569-.568 1.267-.568 2.054 0 .67.146 1.296.451 1.864.32.568.757 1.033 1.325 1.369a3.427 3.427 0 0 0 1.894.538Zm0 .655c-.787 0-1.53-.175-2.214-.51a4.003 4.003 0 0 1-1.66-1.529c-.407-.67-.626-1.47-.626-2.402 0-.889.219-1.66.655-2.33a4.326 4.326 0 0 1 1.704-1.53 4.72 4.72 0 0 1 2.199-.539c.67 0 1.267.117 1.805.35a4.028 4.028 0 0 1 1.398.947c.408.393.714.873.932 1.412.219.568.32 1.136.32 1.748 0 .873-.189 1.645-.596 2.315a4.056 4.056 0 0 1-1.646 1.529c-.684.364-1.441.54-2.271.54Zm9.989-8.154c-.728 0-1.383.16-1.922.466a3.073 3.073 0 0 0-1.252 1.295c-.306.583-.452 1.238-.452 1.981 0 1.15.335 2.068.99 2.737.655.67 1.53 1.006 2.607 1.006.932 0 1.835-.335 2.694-1.006v.89a4.908 4.908 0 0 1-1.267.552c-.48.146-.961.204-1.47.204-.67 0-1.34-.116-1.996-.364-.655-.247-1.223-.699-1.689-1.354-.48-.64-.713-1.514-.713-2.621 0-.801.16-1.544.466-2.228.29-.67.786-1.209 1.456-1.617.684-.422 1.543-.626 2.563-.626.946 0 1.864.291 2.723.903l-.03.83a6.318 6.318 0 0 0-1.106-.728c-.437-.219-.961-.32-1.602-.32Zm3.99 7.936v-8.431h.772v3.946l3.8-3.947h1.005l-3.99 4.05 4.194 4.382H29.5l-3.903-4.267v4.267h-.771Zm10.936-.437c.684 0 1.31-.16 1.878-.495a3.612 3.612 0 0 0 1.325-1.325c.32-.568.495-1.194.495-1.893 0-.612-.146-1.194-.408-1.777a3.726 3.726 0 0 0-1.252-1.442c-.568-.378-1.223-.567-2.01-.567-.568 0-1.135.13-1.703.408a3.537 3.537 0 0 0-1.442 1.266c-.379.569-.568 1.267-.568 2.054 0 .67.16 1.296.466 1.864a3.423 3.423 0 0 0 1.325 1.369c.554.363 1.195.538 1.894.538Zm0 .655c-.787 0-1.53-.175-2.213-.51-.7-.35-1.253-.859-1.66-1.529-.423-.67-.627-1.47-.627-2.402 0-.889.219-1.66.64-2.33a4.535 4.535 0 0 1 1.705-1.53 4.779 4.779 0 0 1 2.213-.539c.67 0 1.267.117 1.806.35a4.033 4.033 0 0 1 1.398.947c.393.393.698.873.917 1.412.218.568.335 1.136.335 1.748 0 .873-.204 1.645-.612 2.315a4.019 4.019 0 0 1-1.63 1.529c-.685.364-1.442.54-2.272.54Zm9.989-8.154c-.743 0-1.383.16-1.937.466a3.158 3.158 0 0 0-1.252 1.295c-.29.583-.436 1.238-.436 1.981 0 1.15.32 2.068.99 2.737.655.67 1.514 1.006 2.591 1.006.947 0 1.85-.335 2.71-1.006l-.015.89a4.9 4.9 0 0 1-1.267.552 4.921 4.921 0 0 1-1.47.204 5.723 5.723 0 0 1-1.996-.364c-.655-.247-1.209-.699-1.674-1.354-.481-.64-.714-1.514-.714-2.621 0-.801.146-1.544.451-2.228.306-.67.787-1.209 1.471-1.617.67-.422 1.529-.626 2.563-.626.947 0 1.85.291 2.708.903l-.014.83c-.32-.262-.699-.51-1.121-.728-.423-.219-.962-.32-1.588-.32Zm7.907 8.241-2.956-6.742-.64 6.436h-.787l1.15-8.795 3.233 7.514 3.35-7.514 1.091 8.795h-.8l-.612-6.436-3.029 6.742Zm9.523-.742c.685 0 1.31-.16 1.864-.495a3.65 3.65 0 0 0 1.34-1.325c.32-.568.48-1.194.48-1.893 0-.612-.13-1.194-.407-1.777a3.615 3.615 0 0 0-1.253-1.442c-.553-.378-1.223-.567-2.01-.567-.552 0-1.12.13-1.688.408a3.537 3.537 0 0 0-1.442 1.266c-.379.569-.568 1.267-.568 2.054 0 .67.146 1.296.466 1.864a3.486 3.486 0 0 0 1.31 1.369c.569.363 1.195.538 1.908.538Zm0 .655c-.8 0-1.529-.175-2.228-.51a4.186 4.186 0 0 1-1.66-1.529c-.408-.67-.611-1.47-.611-2.402 0-.889.204-1.66.64-2.33a4.535 4.535 0 0 1 1.704-1.53 4.722 4.722 0 0 1 2.2-.539c.669 0 1.28.117 1.805.35a4.23 4.23 0 0 1 1.412.947c.393.393.7.873.918 1.412.218.568.335 1.136.335 1.748 0 .873-.204 1.645-.612 2.315a3.97 3.97 0 0 1-1.646 1.529c-.684.364-1.441.54-2.257.54Zm9.99-8.154c-.743 0-1.384.16-1.937.466a3.156 3.156 0 0 0-1.252 1.295 4.36 4.36 0 0 0-.451 1.981c0 1.15.335 2.068.99 2.737.67.67 1.529 1.006 2.606 1.006.932 0 1.835-.335 2.71-1.006l-.015.89a4.902 4.902 0 0 1-1.267.552 4.92 4.92 0 0 1-1.47.204c-.67 0-1.326-.116-1.996-.364-.655-.247-1.223-.699-1.69-1.354-.465-.64-.713-1.514-.713-2.621 0-.801.16-1.544.466-2.228.306-.67.787-1.209 1.471-1.617.67-.422 1.529-.626 2.563-.626.947 0 1.85.291 2.708.903l-.028.83a5.833 5.833 0 0 0-1.107-.728c-.423-.219-.962-.32-1.588-.32Z" fill="#A0A4A7" stroke="#A0A4A7" stroke-width=".216" stroke-miterlimit="2.414"/></svg>